<svg width="76" height="87" viewBox="0 0 76 87" fill="none" xmlns="http://www.w3.org/2000/svg">
<g filter="url(#filter0_di)">
<path d="M55 9H21C16.5817 9 13 12.5817 13 17V49.6574C13 52.3228 14.3275 54.8131 16.5403 56.299L35.1016 68.7625C37.977 70.6933 41.7683 70.5544 44.4948 68.4185L59.9335 56.324C61.8692 54.8076 63 52.4853 63 50.0263V17C63 12.5817 59.4183 9 55 9Z" fill="white"/>
<path d="M55 9H21C16.5817 9 13 12.5817 13 17V49.6574C13 52.3228 14.3275 54.8131 16.5403 56.299L35.1016 68.7625C37.977 70.6933 41.7683 70.5544 44.4948 68.4185L59.9335 56.324C61.8692 54.8076 63 52.4853 63 50.0263V17C63 12.5817 59.4183 9 55 9Z" stroke="#E2E0E0"/>
</g>
<g filter="url(#filter1_d)">
<path d="M40.75 25.125H46.125V32.8036H40.75V25.125Z" fill="#E5E4DF"/>
<g filter="url(#filter2_i)">
<path d="M52.902 9H34.0071C33.5112 9 33.205 9 33.0714 9.00003V19.0132C33.0714 19.1943 33.1453 19.3714 33.2477 19.5208L38.4157 27.0429C38.583 27.2871 38.8697 27.4286 39.1656 27.4286H39.7358L43.5484 26.6982L47.1732 27.4286H47.7434C48.0393 27.4286 48.3164 27.2871 48.4838 27.0429L53.6443 19.5185C53.747 19.3691 53.8036 19.1943 53.8036 19.0132V9.00003C53.5031 8.99997 53.3975 9 52.902 9Z" fill="#FF473E"/>
</g>
<g filter="url(#filter3_i)">
<path d="M39.2144 9H46.8929V27.4286H39.2144V9Z" fill="#C6C6C6"/>
</g>
<g filter="url(#filter4_i)">
<path d="M43.4375 52C49.5866 52 54.5714 46.8433 54.5714 40.4822C54.5714 34.121 49.5866 28.9643 43.4375 28.9643C37.2884 28.9643 32.3036 34.121 32.3036 40.4822C32.3036 46.8433 37.2884 52 43.4375 52Z" fill="url(#paint0_radial)"/>
</g>
<g filter="url(#filter5_i)">
<path d="M39.1512 40.788C41.2464 41.3187 42.8957 42.968 43.4264 45.0632C43.4775 45.2647 43.7368 45.2647 43.7879 45.0632C44.3186 42.968 45.9679 41.3187 48.0632 40.788C48.2647 40.737 48.2647 40.4776 48.0632 40.4266C45.9679 39.8958 44.3186 38.2464 43.7879 36.1511C43.7368 35.9496 43.4775 35.9496 43.4264 36.1511C42.8957 38.2464 41.2464 39.8958 39.1512 40.4266C38.9496 40.4776 38.9497 40.737 39.1512 40.788Z" fill="#D4AD78"/>
</g>
</g>
<path d="M22.816 47.252C22.868 46.996 22.99 46.792 23.182 46.64C23.37 46.484 23.592 46.406 23.848 46.406C24.204 46.406 24.486 46.526 24.694 46.766C24.898 47.002 25 47.346 25 47.798L25 49.616L20.764 49.616L20.764 47.834C20.764 47.406 20.858 47.078 21.046 46.85C21.234 46.618 21.498 46.502 21.838 46.502C22.102 46.502 22.318 46.572 22.486 46.712C22.654 46.848 22.764 47.028 22.816 47.252ZM22.54 48.77L22.54 48.008C22.54 47.796 22.494 47.636 22.402 47.528C22.306 47.416 22.17 47.36 21.994 47.36C21.818 47.36 21.682 47.414 21.586 47.522C21.49 47.63 21.442 47.796 21.442 48.02L21.442 48.77L22.54 48.77ZM24.31 47.966C24.31 47.742 24.262 47.57 24.166 47.45C24.066 47.33 23.922 47.27 23.734 47.27C23.546 47.27 23.402 47.332 23.302 47.456C23.198 47.576 23.146 47.748 23.146 47.972L23.146 48.77L24.31 48.77L24.31 47.966ZM25 41.3553L23.35 42.3453L23.35 42.7173L25 42.7173L25 43.5633L20.764 43.5633L20.764 41.9493C20.764 41.4573 20.884 41.0833 21.124 40.8273C21.364 40.5673 21.68 40.4373 22.072 40.4373C22.392 40.4373 22.66 40.5273 22.876 40.7073C23.092 40.8833 23.236 41.1393 23.308 41.4753L25 40.4193L25 41.3553ZM22.768 42.7173L22.768 42.0213C22.768 41.5373 22.554 41.2953 22.126 41.2953C21.922 41.2953 21.764 41.3553 21.652 41.4753C21.536 41.5913 21.478 41.7733 21.478 42.0213L21.478 42.7173L22.768 42.7173ZM20.704 35.63C20.704 35.234 20.796 34.876 20.98 34.556C21.164 34.232 21.422 33.978 21.754 33.794C22.082 33.606 22.454 33.512 22.87 33.512C23.286 33.512 23.66 33.606 23.992 33.794C24.324 33.978 24.582 34.232 24.766 34.556C24.95 34.876 25.042 35.234 25.042 35.63C25.042 36.026 24.95 36.386 24.766 36.71C24.582 37.03 24.324 37.284 23.992 37.472C23.66 37.656 23.286 37.748 22.87 37.748C22.454 37.748 22.082 37.656 21.754 37.472C21.422 37.284 21.164 37.03 20.98 36.71C20.796 36.386 20.704 36.026 20.704 35.63ZM21.484 35.63C21.484 35.878 21.54 36.096 21.652 36.284C21.764 36.472 21.926 36.62 22.138 36.728C22.346 36.832 22.59 36.884 22.87 36.884C23.15 36.884 23.396 36.832 23.608 36.728C23.816 36.62 23.976 36.472 24.088 36.284C24.2 36.096 24.256 35.878 24.256 35.63C24.256 35.382 24.2 35.164 24.088 34.976C23.976 34.788 23.816 34.642 23.608 34.538C23.396 34.43 23.15 34.376 22.87 34.376C22.59 34.376 22.346 34.43 22.138 34.538C21.926 34.642 21.764 34.788 21.652 34.976C21.54 35.164 21.484 35.382 21.484 35.63ZM25 27.0378L25 27.8838L22.12 29.7798L25 29.7798L25 30.6258L20.764 30.6258L20.764 29.7798L23.668 27.8838L20.764 27.8838L20.764 27.0378L25 27.0378ZM24.316 23.2062L24.316 21.2322L25 21.2322L25 24.1422L24.352 24.1422L21.442 22.2102L21.442 24.1122L20.764 24.1122L20.764 21.2562L21.412 21.2562L24.316 23.2062ZM21.436 17.4868L22.534 17.4868L22.534 15.9868L23.182 15.9868L23.182 17.4868L24.322 17.4868L24.322 15.8068L25 15.8068L25 18.3328L20.764 18.3328L20.764 15.8068L21.436 15.8068L21.436 17.4868Z" fill="#8E6C4C"/>
<defs>
<filter id="filter0_di" x="0.5" y="0.5" width="75" height="86.1209" filterUnits="userSpaceOnUse" color-interpolation-filters="sRGB">
<feFlood flood-opacity="0" result="BackgroundImageFix"/>
<feColorMatrix in="SourceAlpha" type="matrix" values="0 0 0 0 0 0 0 0 0 0 0 0 0 0 0 0 0 0 127 0"/>
<feOffset dy="4"/>
<feGaussianBlur stdDeviation="6"/>
<feColorMatrix type="matrix" values="0 0 0 0 0.6 0 0 0 0 0.6 0 0 0 0 0.6 0 0 0 0.25 0"/>
<feBlend mode="normal" in2="BackgroundImageFix" result="effect1_dropShadow"/>
<feBlend mode="normal" in="SourceGraphic" in2="effect1_dropShadow" result="shape"/>
<feColorMatrix in="SourceAlpha" type="matrix" values="0 0 0 0 0 0 0 0 0 0 0 0 0 0 0 0 0 0 127 0" result="hardAlpha"/>
<feOffset dy="-2"/>
<feGaussianBlur stdDeviation="2"/>
<feComposite in2="hardAlpha" operator="arithmetic" k2="-1" k3="1"/>
<feColorMatrix type="matrix" values="0 0 0 0 0.704167 0 0 0 0 0.657222 0 0 0 0 0.657222 0 0 0 0.25 0"/>
<feBlend mode="normal" in2="shape" result="effect2_innerShadow"/>
</filter>
<filter id="filter1_d" x="28.3036" y="9" width="30.2679" height="51" filterUnits="userSpaceOnUse" color-interpolation-filters="sRGB">
<feFlood flood-opacity="0" result="BackgroundImageFix"/>
<feColorMatrix in="SourceAlpha" type="matrix" values="0 0 0 0 0 0 0 0 0 0 0 0 0 0 0 0 0 0 127 0"/>
<feOffset dy="4"/>
<feGaussianBlur stdDeviation="2"/>
<feColorMatrix type="matrix" values="0 0 0 0 0.675 0 0 0 0 0.675 0 0 0 0 0.675 0 0 0 0.25 0"/>
<feBlend mode="normal" in2="BackgroundImageFix" result="effect1_dropShadow"/>
<feBlend mode="normal" in="SourceGraphic" in2="effect1_dropShadow" result="shape"/>
</filter>
<filter id="filter2_i" x="33.0714" y="9" width="20.7321" height="22.4286" filterUnits="userSpaceOnUse" color-interpolation-filters="sRGB">
<feFlood flood-opacity="0" result="BackgroundImageFix"/>
<feBlend mode="normal" in="SourceGraphic" in2="BackgroundImageFix" result="shape"/>
<feColorMatrix in="SourceAlpha" type="matrix" values="0 0 0 0 0 0 0 0 0 0 0 0 0 0 0 0 0 0 127 0" result="hardAlpha"/>
<feOffset dy="4"/>
<feGaussianBlur stdDeviation="2"/>
<feComposite in2="hardAlpha" operator="arithmetic" k2="-1" k3="1"/>
<feColorMatrix type="matrix" values="0 0 0 0 0 0 0 0 0 0 0 0 0 0 0 0 0 0 0.25 0"/>
<feBlend mode="normal" in2="shape" result="effect1_innerShadow"/>
</filter>
<filter id="filter3_i" x="39.2144" y="9" width="7.67857" height="22.4286" filterUnits="userSpaceOnUse" color-interpolation-filters="sRGB">
<feFlood flood-opacity="0" result="BackgroundImageFix"/>
<feBlend mode="normal" in="SourceGraphic" in2="BackgroundImageFix" result="shape"/>
<feColorMatrix in="SourceAlpha" type="matrix" values="0 0 0 0 0 0 0 0 0 0 0 0 0 0 0 0 0 0 127 0" result="hardAlpha"/>
<feOffset dy="4"/>
<feGaussianBlur stdDeviation="2"/>
<feComposite in2="hardAlpha" operator="arithmetic" k2="-1" k3="1"/>
<feColorMatrix type="matrix" values="0 0 0 0 0 0 0 0 0 0 0 0 0 0 0 0 0 0 0.25 0"/>
<feBlend mode="normal" in2="shape" result="effect1_innerShadow"/>
</filter>
<filter id="filter4_i" x="32.3036" y="26.9643" width="22.2679" height="25.0357" filterUnits="userSpaceOnUse" color-interpolation-filters="sRGB">
<feFlood flood-opacity="0" result="BackgroundImageFix"/>
<feBlend mode="normal" in="SourceGraphic" in2="BackgroundImageFix" result="shape"/>
<feColorMatrix in="SourceAlpha" type="matrix" values="0 0 0 0 0 0 0 0 0 0 0 0 0 0 0 0 0 0 127 0" result="hardAlpha"/>
<feOffset dy="-2"/>
<feGaussianBlur stdDeviation="2"/>
<feComposite in2="hardAlpha" operator="arithmetic" k2="-1" k3="1"/>
<feColorMatrix type="matrix" values="0 0 0 0 0 0 0 0 0 0 0 0 0 0 0 0 0 0 0.42 0"/>
<feBlend mode="normal" in2="shape" result="effect1_innerShadow"/>
</filter>
<filter id="filter5_i" x="39" y="36" width="9.21429" height="9.21429" filterUnits="userSpaceOnUse" color-interpolation-filters="sRGB">
<feFlood flood-opacity="0" result="BackgroundImageFix"/>
<feBlend mode="normal" in="SourceGraphic" in2="BackgroundImageFix" result="shape"/>
<feColorMatrix in="SourceAlpha" type="matrix" values="0 0 0 0 0 0 0 0 0 0 0 0 0 0 0 0 0 0 127 0" result="hardAlpha"/>
<feOffset/>
<feGaussianBlur stdDeviation="0.5"/>
<feComposite in2="hardAlpha" operator="arithmetic" k2="-1" k3="1"/>
<feColorMatrix type="matrix" values="0 0 0 0 0 0 0 0 0 0 0 0 0 0 0 0 0 0 0.25 0"/>
<feBlend mode="normal" in2="shape" result="effect1_innerShadow"/>
</filter>
<radialGradient id="paint0_radial" cx="0" cy="0" r="1" gradientUnits="userSpaceOnUse" gradientTransform="translate(43.8882 36.2422) rotate(94.1445) scale(12.2899 11.8802)">
<stop stop-color="#EFC688"/>
<stop offset="1" stop-color="#805F43"/>
</radialGradient>
</defs>
</svg>
