<svg width="76" height="87" viewBox="0 0 76 87" fill="none" xmlns="http://www.w3.org/2000/svg">
<g filter="url(#filter0_di)">
<path d="M55 9H21C16.5817 9 13 12.5817 13 17V49.6574C13 52.3228 14.3275 54.8131 16.5403 56.299L35.1016 68.7625C37.977 70.6933 41.7683 70.5544 44.4948 68.4185L59.9335 56.324C61.8692 54.8076 63 52.4853 63 50.0263V17C63 12.5817 59.4183 9 55 9Z" fill="white"/>
<path d="M55 9H21C16.5817 9 13 12.5817 13 17V49.6574C13 52.3228 14.3275 54.8131 16.5403 56.299L35.1016 68.7625C37.977 70.6933 41.7683 70.5544 44.4948 68.4185L59.9335 56.324C61.8692 54.8076 63 52.4853 63 50.0263V17C63 12.5817 59.4183 9 55 9Z" stroke="#E2E0E0"/>
</g>
<g filter="url(#filter1_d)">
<path d="M40.75 25.125H46.125V32.8036H40.75V25.125Z" fill="#E5E4DF"/>
<g filter="url(#filter2_i)">
<path d="M52.902 9H34.0071C33.5112 9 33.205 9 33.0714 9.00003V19.0132C33.0714 19.1943 33.1453 19.3714 33.2477 19.5208L38.4157 27.0429C38.583 27.2871 38.8697 27.4286 39.1656 27.4286H39.7358L43.5484 26.6982L47.1732 27.4286H47.7434C48.0393 27.4286 48.3164 27.2871 48.4838 27.0429L53.6443 19.5185C53.747 19.3691 53.8036 19.1943 53.8036 19.0132V9.00003C53.5031 8.99997 53.3975 9 52.902 9Z" fill="#FF473E"/>
</g>
<g filter="url(#filter3_i)">
<path d="M39.2144 9H46.8929V27.4286H39.2144V9Z" fill="#C6C6C6"/>
</g>
<g filter="url(#filter4_i)">
<path d="M43.4375 52C49.5866 52 54.5714 46.8433 54.5714 40.4822C54.5714 34.121 49.5866 28.9643 43.4375 28.9643C37.2884 28.9643 32.3036 34.121 32.3036 40.4822C32.3036 46.8433 37.2884 52 43.4375 52Z" fill="url(#paint0_radial)"/>
</g>
<g filter="url(#filter5_i)">
<path d="M39.1512 40.788C41.2464 41.3187 42.8957 42.968 43.4264 45.0632C43.4775 45.2647 43.7368 45.2647 43.7879 45.0632C44.3186 42.968 45.9679 41.3187 48.0632 40.788C48.2647 40.737 48.2647 40.4776 48.0632 40.4266C45.9679 39.8958 44.3186 38.2464 43.7879 36.1511C43.7368 35.9496 43.4775 35.9496 43.4264 36.1511C42.8957 38.2464 41.2464 39.8958 39.1512 40.4266C38.9496 40.4776 38.9497 40.737 39.1512 40.788Z" fill="#F0D775"/>
</g>
</g>
<path d="M20.722 41.654C20.722 41.138 20.85 40.71 21.106 40.37C21.358 40.03 21.7 39.812 22.132 39.716L22.132 40.604C21.94 40.688 21.788 40.822 21.676 41.006C21.56 41.186 21.502 41.4 21.502 41.648C21.502 41.892 21.558 42.108 21.67 42.296C21.782 42.484 21.942 42.63 22.15 42.734C22.358 42.838 22.602 42.89 22.882 42.89C23.326 42.89 23.672 42.772 23.92 42.536C24.168 42.296 24.292 41.97 24.292 41.558C24.292 41.254 24.202 40.994 24.022 40.778C23.842 40.558 23.592 40.416 23.272 40.352L23.272 41.786L22.666 41.786L22.666 39.644L23.482 39.644C23.762 39.704 24.02 39.822 24.256 39.998C24.492 40.17 24.682 40.398 24.826 40.682C24.966 40.962 25.036 41.284 25.036 41.648C25.036 42.064 24.946 42.432 24.766 42.752C24.582 43.068 24.328 43.314 24.004 43.49C23.676 43.662 23.302 43.748 22.882 43.748C22.462 43.748 22.09 43.662 21.766 43.49C21.438 43.314 21.182 43.068 20.998 42.752C20.814 42.436 20.722 42.07 20.722 41.654ZM20.704 34.7745C20.704 34.3785 20.796 34.0205 20.98 33.7005C21.164 33.3765 21.422 33.1225 21.754 32.9385C22.082 32.7505 22.454 32.6565 22.87 32.6565C23.286 32.6565 23.66 32.7505 23.992 32.9385C24.324 33.1225 24.582 33.3765 24.766 33.7005C24.95 34.0205 25.042 34.3785 25.042 34.7745C25.042 35.1705 24.95 35.5305 24.766 35.8545C24.582 36.1745 24.324 36.4285 23.992 36.6165C23.66 36.8005 23.286 36.8925 22.87 36.8925C22.454 36.8925 22.082 36.8005 21.754 36.6165C21.422 36.4285 21.164 36.1745 20.98 35.8545C20.796 35.5305 20.704 35.1705 20.704 34.7745ZM21.484 34.7745C21.484 35.0225 21.54 35.2405 21.652 35.4285C21.764 35.6165 21.926 35.7645 22.138 35.8725C22.346 35.9765 22.59 36.0285 22.87 36.0285C23.15 36.0285 23.396 35.9765 23.608 35.8725C23.816 35.7645 23.976 35.6165 24.088 35.4285C24.2 35.2405 24.256 35.0225 24.256 34.7745C24.256 34.5265 24.2 34.3085 24.088 34.1205C23.976 33.9325 23.816 33.7865 23.608 33.6825C23.396 33.5745 23.15 33.5205 22.87 33.5205C22.59 33.5205 22.346 33.5745 22.138 33.6825C21.926 33.7865 21.764 33.9325 21.652 34.1205C21.54 34.3085 21.484 34.5265 21.484 34.7745ZM24.352 28.9243L24.352 27.5023L25 27.5023L25 29.7703L20.764 29.7703L20.764 28.9243L24.352 28.9243ZM22.876 21.0228C23.296 21.0228 23.666 21.1108 23.986 21.2868C24.306 21.4628 24.556 21.7188 24.736 22.0548C24.912 22.3868 25 22.7828 25 23.2428L25 24.7488L20.764 24.7488L20.764 23.2428C20.764 22.7828 20.852 22.3868 21.028 22.0548C21.2 21.7188 21.446 21.4628 21.766 21.2868C22.082 21.1108 22.452 21.0228 22.876 21.0228ZM24.244 23.3148C24.244 22.8588 24.124 22.5068 23.884 22.2588C23.644 22.0068 23.308 21.8808 22.876 21.8808C22.44 21.8808 22.102 22.0068 21.862 22.2588C21.622 22.5068 21.502 22.8588 21.502 23.3148L21.502 23.9028L24.244 23.9028L24.244 23.3148Z" fill="#DFAA41"/>
<defs>
<filter id="filter0_di" x="0.5" y="0.5" width="75" height="86.1209" filterUnits="userSpaceOnUse" color-interpolation-filters="sRGB">
<feFlood flood-opacity="0" result="BackgroundImageFix"/>
<feColorMatrix in="SourceAlpha" type="matrix" values="0 0 0 0 0 0 0 0 0 0 0 0 0 0 0 0 0 0 127 0"/>
<feOffset dy="4"/>
<feGaussianBlur stdDeviation="6"/>
<feColorMatrix type="matrix" values="0 0 0 0 0.6 0 0 0 0 0.6 0 0 0 0 0.6 0 0 0 0.25 0"/>
<feBlend mode="normal" in2="BackgroundImageFix" result="effect1_dropShadow"/>
<feBlend mode="normal" in="SourceGraphic" in2="effect1_dropShadow" result="shape"/>
<feColorMatrix in="SourceAlpha" type="matrix" values="0 0 0 0 0 0 0 0 0 0 0 0 0 0 0 0 0 0 127 0" result="hardAlpha"/>
<feOffset dy="-2"/>
<feGaussianBlur stdDeviation="2"/>
<feComposite in2="hardAlpha" operator="arithmetic" k2="-1" k3="1"/>
<feColorMatrix type="matrix" values="0 0 0 0 0.704167 0 0 0 0 0.657222 0 0 0 0 0.657222 0 0 0 0.25 0"/>
<feBlend mode="normal" in2="shape" result="effect2_innerShadow"/>
</filter>
<filter id="filter1_d" x="28.3036" y="9" width="30.2679" height="51" filterUnits="userSpaceOnUse" color-interpolation-filters="sRGB">
<feFlood flood-opacity="0" result="BackgroundImageFix"/>
<feColorMatrix in="SourceAlpha" type="matrix" values="0 0 0 0 0 0 0 0 0 0 0 0 0 0 0 0 0 0 127 0"/>
<feOffset dy="4"/>
<feGaussianBlur stdDeviation="2"/>
<feColorMatrix type="matrix" values="0 0 0 0 0.675 0 0 0 0 0.675 0 0 0 0 0.675 0 0 0 0.25 0"/>
<feBlend mode="normal" in2="BackgroundImageFix" result="effect1_dropShadow"/>
<feBlend mode="normal" in="SourceGraphic" in2="effect1_dropShadow" result="shape"/>
</filter>
<filter id="filter2_i" x="33.0714" y="9" width="20.7321" height="22.4286" filterUnits="userSpaceOnUse" color-interpolation-filters="sRGB">
<feFlood flood-opacity="0" result="BackgroundImageFix"/>
<feBlend mode="normal" in="SourceGraphic" in2="BackgroundImageFix" result="shape"/>
<feColorMatrix in="SourceAlpha" type="matrix" values="0 0 0 0 0 0 0 0 0 0 0 0 0 0 0 0 0 0 127 0" result="hardAlpha"/>
<feOffset dy="4"/>
<feGaussianBlur stdDeviation="2"/>
<feComposite in2="hardAlpha" operator="arithmetic" k2="-1" k3="1"/>
<feColorMatrix type="matrix" values="0 0 0 0 0 0 0 0 0 0 0 0 0 0 0 0 0 0 0.25 0"/>
<feBlend mode="normal" in2="shape" result="effect1_innerShadow"/>
</filter>
<filter id="filter3_i" x="39.2144" y="9" width="7.67857" height="22.4286" filterUnits="userSpaceOnUse" color-interpolation-filters="sRGB">
<feFlood flood-opacity="0" result="BackgroundImageFix"/>
<feBlend mode="normal" in="SourceGraphic" in2="BackgroundImageFix" result="shape"/>
<feColorMatrix in="SourceAlpha" type="matrix" values="0 0 0 0 0 0 0 0 0 0 0 0 0 0 0 0 0 0 127 0" result="hardAlpha"/>
<feOffset dy="4"/>
<feGaussianBlur stdDeviation="2"/>
<feComposite in2="hardAlpha" operator="arithmetic" k2="-1" k3="1"/>
<feColorMatrix type="matrix" values="0 0 0 0 0 0 0 0 0 0 0 0 0 0 0 0 0 0 0.25 0"/>
<feBlend mode="normal" in2="shape" result="effect1_innerShadow"/>
</filter>
<filter id="filter4_i" x="32.3036" y="26.9643" width="22.2679" height="25.0357" filterUnits="userSpaceOnUse" color-interpolation-filters="sRGB">
<feFlood flood-opacity="0" result="BackgroundImageFix"/>
<feBlend mode="normal" in="SourceGraphic" in2="BackgroundImageFix" result="shape"/>
<feColorMatrix in="SourceAlpha" type="matrix" values="0 0 0 0 0 0 0 0 0 0 0 0 0 0 0 0 0 0 127 0" result="hardAlpha"/>
<feOffset dy="-2"/>
<feGaussianBlur stdDeviation="2"/>
<feComposite in2="hardAlpha" operator="arithmetic" k2="-1" k3="1"/>
<feColorMatrix type="matrix" values="0 0 0 0 0.275 0 0 0 0 0.275 0 0 0 0 0.275 0 0 0 0.25 0"/>
<feBlend mode="normal" in2="shape" result="effect1_innerShadow"/>
</filter>
<filter id="filter5_i" x="39" y="36" width="9.21429" height="9.21429" filterUnits="userSpaceOnUse" color-interpolation-filters="sRGB">
<feFlood flood-opacity="0" result="BackgroundImageFix"/>
<feBlend mode="normal" in="SourceGraphic" in2="BackgroundImageFix" result="shape"/>
<feColorMatrix in="SourceAlpha" type="matrix" values="0 0 0 0 0 0 0 0 0 0 0 0 0 0 0 0 0 0 127 0" result="hardAlpha"/>
<feOffset/>
<feGaussianBlur stdDeviation="0.5"/>
<feComposite in2="hardAlpha" operator="arithmetic" k2="-1" k3="1"/>
<feColorMatrix type="matrix" values="0 0 0 0 0.945833 0 0 0 0 0.741218 0 0 0 0 0.0157639 0 0 0 1 0"/>
<feBlend mode="normal" in2="shape" result="effect1_innerShadow"/>
</filter>
<radialGradient id="paint0_radial" cx="0" cy="0" r="1" gradientUnits="userSpaceOnUse" gradientTransform="translate(43.8882 36.2422) rotate(90) scale(9.61491 9.29441)">
<stop stop-color="#FAF398"/>
<stop offset="1" stop-color="#E1AB40"/>
</radialGradient>
</defs>
</svg>
