<svg width="76" height="87" viewBox="0 0 76 87" fill="none" xmlns="http://www.w3.org/2000/svg">
<g filter="url(#filter0_di)">
<path d="M55 9H21C16.5817 9 13 12.5817 13 17V49.6574C13 52.3228 14.3275 54.8131 16.5403 56.299L35.1016 68.7625C37.977 70.6933 41.7683 70.5544 44.4948 68.4185L59.9335 56.324C61.8692 54.8076 63 52.4853 63 50.0263V17C63 12.5817 59.4183 9 55 9Z" fill="white"/>
<path d="M55 9H21C16.5817 9 13 12.5817 13 17V49.6574C13 52.3228 14.3275 54.8131 16.5403 56.299L35.1016 68.7625C37.977 70.6933 41.7683 70.5544 44.4948 68.4185L59.9335 56.324C61.8692 54.8076 63 52.4853 63 50.0263V17C63 12.5817 59.4183 9 55 9Z" stroke="#E2E0E0"/>
</g>
<g filter="url(#filter1_d)">
<path d="M40.75 25.125H46.125V32.8036H40.75V25.125Z" fill="#E5E4DF"/>
<g filter="url(#filter2_i)">
<path d="M52.902 9H34.0071C33.5112 9 33.205 9 33.0714 9.00003V19.0132C33.0714 19.1943 33.1453 19.3714 33.2477 19.5208L38.4157 27.0429C38.583 27.2871 38.8697 27.4286 39.1656 27.4286H39.7358L43.5484 26.6982L47.1732 27.4286H47.7434C48.0393 27.4286 48.3164 27.2871 48.4838 27.0429L53.6443 19.5185C53.747 19.3691 53.8036 19.1943 53.8036 19.0132V9.00003C53.5031 8.99997 53.3975 9 52.902 9Z" fill="#C67EFF"/>
</g>
<g filter="url(#filter3_i)">
<path d="M39.2144 9H46.8929V27.4286H39.2144V9Z" fill="#BBE7FF"/>
</g>
<g filter="url(#filter4_i)">
<path d="M43.4375 52C49.5866 52 54.5714 46.8433 54.5714 40.4822C54.5714 34.121 49.5866 28.9643 43.4375 28.9643C37.2884 28.9643 32.3036 34.121 32.3036 40.4822C32.3036 46.8433 37.2884 52 43.4375 52Z" fill="url(#paint0_radial)"/>
</g>
<g filter="url(#filter5_i)">
<path d="M39.1512 40.788C41.2464 41.3187 42.8957 42.968 43.4264 45.0632C43.4775 45.2647 43.7368 45.2647 43.7879 45.0632C44.3186 42.968 45.9679 41.3187 48.0632 40.788C48.2647 40.737 48.2647 40.4776 48.0632 40.4266C45.9679 39.8958 44.3186 38.2464 43.7879 36.1511C43.7368 35.9496 43.4775 35.9496 43.4264 36.1511C42.8957 38.2464 41.2464 39.8958 39.1512 40.4266C38.9496 40.4776 38.9497 40.737 39.1512 40.788Z" fill="#F9F9F9"/>
</g>
</g>
<path d="M24.428 50.77L26 50.77L26 51.616L21.764 51.616L21.764 50.074C21.764 49.574 21.884 49.198 22.124 48.946C22.364 48.69 22.69 48.562 23.102 48.562C23.506 48.562 23.828 48.694 24.068 48.958C24.308 49.218 24.428 49.59 24.428 50.074L24.428 50.77ZM23.75 50.164C23.75 49.668 23.534 49.42 23.102 49.42C22.89 49.42 22.728 49.478 22.616 49.594C22.504 49.71 22.448 49.9 22.448 50.164L22.448 50.77L23.75 50.77L23.75 50.164ZM25.352 45.9165L25.352 44.4945L26 44.4945L26 46.7625L21.764 46.7625L21.764 45.9165L25.352 45.9165ZM25.148 40.161L25.148 41.859L26 42.159L26 43.053L21.812 41.493L21.812 40.527L26 38.973L26 39.867L25.148 40.161ZM24.506 40.389L22.718 41.013L24.506 41.637L24.506 40.389ZM21.764 34.3864L22.436 34.3864L22.436 35.5564L26 35.5564L26 36.4024L22.436 36.4024L22.436 37.5664L21.764 37.5664L21.764 34.3864ZM21.764 31.8247L26 31.8247L26 32.6707L21.764 32.6707L21.764 31.8247ZM26 26.2214L26 27.0674L23.12 28.9634L26 28.9634L26 29.8094L21.764 29.8094L21.764 28.9634L24.668 27.0674L21.764 27.0674L21.764 26.2214L26 26.2214ZM21.764 23.3898L24.248 23.3898C24.58 23.3898 24.83 23.3178 24.998 23.1738C25.162 23.0258 25.244 22.8138 25.244 22.5378C25.244 22.2658 25.162 22.0578 24.998 21.9138C24.83 21.7658 24.58 21.6918 24.248 21.6918L21.764 21.6918L21.764 20.8518L24.248 20.8518C24.64 20.8518 24.972 20.9258 25.244 21.0738C25.512 21.2178 25.712 21.4198 25.844 21.6798C25.976 21.9358 26.042 22.2278 26.042 22.5558C26.042 23.0638 25.89 23.4698 25.586 23.7738C25.282 24.0778 24.836 24.2298 24.248 24.2298L21.764 24.2298L21.764 23.3898ZM21.812 14.2941L26 14.2941L26 15.1341L23.078 15.1341L26 16.2081L26 16.9401L23.09 18.0141L26 18.0141L26 18.8601L21.812 18.8601L21.812 17.8341L24.962 16.5621L21.812 15.3141L21.812 14.2941Z" fill="#9760C2"/>
<defs>
<filter id="filter0_di" x="0.5" y="0.5" width="75" height="86.1209" filterUnits="userSpaceOnUse" color-interpolation-filters="sRGB">
<feFlood flood-opacity="0" result="BackgroundImageFix"/>
<feColorMatrix in="SourceAlpha" type="matrix" values="0 0 0 0 0 0 0 0 0 0 0 0 0 0 0 0 0 0 127 0"/>
<feOffset dy="4"/>
<feGaussianBlur stdDeviation="6"/>
<feColorMatrix type="matrix" values="0 0 0 0 0.6 0 0 0 0 0.6 0 0 0 0 0.6 0 0 0 0.25 0"/>
<feBlend mode="normal" in2="BackgroundImageFix" result="effect1_dropShadow"/>
<feBlend mode="normal" in="SourceGraphic" in2="effect1_dropShadow" result="shape"/>
<feColorMatrix in="SourceAlpha" type="matrix" values="0 0 0 0 0 0 0 0 0 0 0 0 0 0 0 0 0 0 127 0" result="hardAlpha"/>
<feOffset dy="-2"/>
<feGaussianBlur stdDeviation="2"/>
<feComposite in2="hardAlpha" operator="arithmetic" k2="-1" k3="1"/>
<feColorMatrix type="matrix" values="0 0 0 0 0.704167 0 0 0 0 0.657222 0 0 0 0 0.657222 0 0 0 0.25 0"/>
<feBlend mode="normal" in2="shape" result="effect2_innerShadow"/>
</filter>
<filter id="filter1_d" x="28.3036" y="9" width="30.2679" height="51" filterUnits="userSpaceOnUse" color-interpolation-filters="sRGB">
<feFlood flood-opacity="0" result="BackgroundImageFix"/>
<feColorMatrix in="SourceAlpha" type="matrix" values="0 0 0 0 0 0 0 0 0 0 0 0 0 0 0 0 0 0 127 0"/>
<feOffset dy="4"/>
<feGaussianBlur stdDeviation="2"/>
<feColorMatrix type="matrix" values="0 0 0 0 0.675 0 0 0 0 0.675 0 0 0 0 0.675 0 0 0 0.25 0"/>
<feBlend mode="normal" in2="BackgroundImageFix" result="effect1_dropShadow"/>
<feBlend mode="normal" in="SourceGraphic" in2="effect1_dropShadow" result="shape"/>
</filter>
<filter id="filter2_i" x="33.0714" y="9" width="20.7321" height="22.4286" filterUnits="userSpaceOnUse" color-interpolation-filters="sRGB">
<feFlood flood-opacity="0" result="BackgroundImageFix"/>
<feBlend mode="normal" in="SourceGraphic" in2="BackgroundImageFix" result="shape"/>
<feColorMatrix in="SourceAlpha" type="matrix" values="0 0 0 0 0 0 0 0 0 0 0 0 0 0 0 0 0 0 127 0" result="hardAlpha"/>
<feOffset dy="4"/>
<feGaussianBlur stdDeviation="2"/>
<feComposite in2="hardAlpha" operator="arithmetic" k2="-1" k3="1"/>
<feColorMatrix type="matrix" values="0 0 0 0 0 0 0 0 0 0 0 0 0 0 0 0 0 0 0.25 0"/>
<feBlend mode="normal" in2="shape" result="effect1_innerShadow"/>
</filter>
<filter id="filter3_i" x="39.2144" y="9" width="7.67857" height="22.4286" filterUnits="userSpaceOnUse" color-interpolation-filters="sRGB">
<feFlood flood-opacity="0" result="BackgroundImageFix"/>
<feBlend mode="normal" in="SourceGraphic" in2="BackgroundImageFix" result="shape"/>
<feColorMatrix in="SourceAlpha" type="matrix" values="0 0 0 0 0 0 0 0 0 0 0 0 0 0 0 0 0 0 127 0" result="hardAlpha"/>
<feOffset dy="4"/>
<feGaussianBlur stdDeviation="2"/>
<feComposite in2="hardAlpha" operator="arithmetic" k2="-1" k3="1"/>
<feColorMatrix type="matrix" values="0 0 0 0 0 0 0 0 0 0 0 0 0 0 0 0 0 0 0.25 0"/>
<feBlend mode="normal" in2="shape" result="effect1_innerShadow"/>
</filter>
<filter id="filter4_i" x="32.3036" y="26.9643" width="22.2679" height="25.0357" filterUnits="userSpaceOnUse" color-interpolation-filters="sRGB">
<feFlood flood-opacity="0" result="BackgroundImageFix"/>
<feBlend mode="normal" in="SourceGraphic" in2="BackgroundImageFix" result="shape"/>
<feColorMatrix in="SourceAlpha" type="matrix" values="0 0 0 0 0 0 0 0 0 0 0 0 0 0 0 0 0 0 127 0" result="hardAlpha"/>
<feOffset dy="-2"/>
<feGaussianBlur stdDeviation="2"/>
<feComposite in2="hardAlpha" operator="arithmetic" k2="-1" k3="1"/>
<feColorMatrix type="matrix" values="0 0 0 0 0.275 0 0 0 0 0.275 0 0 0 0 0.275 0 0 0 0.25 0"/>
<feBlend mode="normal" in2="shape" result="effect1_innerShadow"/>
</filter>
<filter id="filter5_i" x="39" y="36" width="9.21429" height="9.21429" filterUnits="userSpaceOnUse" color-interpolation-filters="sRGB">
<feFlood flood-opacity="0" result="BackgroundImageFix"/>
<feBlend mode="normal" in="SourceGraphic" in2="BackgroundImageFix" result="shape"/>
<feColorMatrix in="SourceAlpha" type="matrix" values="0 0 0 0 0 0 0 0 0 0 0 0 0 0 0 0 0 0 127 0" result="hardAlpha"/>
<feOffset/>
<feGaussianBlur stdDeviation="0.5"/>
<feComposite in2="hardAlpha" operator="arithmetic" k2="-1" k3="1"/>
<feColorMatrix type="matrix" values="0 0 0 0 0.866667 0 0 0 0 0.866667 0 0 0 0 0.866667 0 0 0 1 0"/>
<feBlend mode="normal" in2="shape" result="effect1_innerShadow"/>
</filter>
<radialGradient id="paint0_radial" cx="0" cy="0" r="1" gradientUnits="userSpaceOnUse" gradientTransform="translate(43.8882 36.2422) rotate(89.5936) scale(15.7582 15.2329)">
<stop stop-color="#FEFEFE"/>
<stop offset="1" stop-color="#D8D8D8"/>
</radialGradient>
</defs>
</svg>
