<svg width="76" height="87" viewBox="0 0 76 87" fill="none" xmlns="http://www.w3.org/2000/svg">
<g filter="url(#filter0_di)">
<path d="M55 9H21C16.5817 9 13 12.5817 13 17V49.6574C13 52.3228 14.3275 54.8131 16.5403 56.299L35.1016 68.7625C37.977 70.6933 41.7683 70.5544 44.4948 68.4185L59.9335 56.324C61.8692 54.8076 63 52.4853 63 50.0263V17C63 12.5817 59.4183 9 55 9Z" fill="white"/>
<path d="M55 9H21C16.5817 9 13 12.5817 13 17V49.6574C13 52.3228 14.3275 54.8131 16.5403 56.299L35.1016 68.7625C37.977 70.6933 41.7683 70.5544 44.4948 68.4185L59.9335 56.324C61.8692 54.8076 63 52.4853 63 50.0263V17C63 12.5817 59.4183 9 55 9Z" stroke="#E2E0E0"/>
</g>
<g filter="url(#filter1_d)">
<path d="M40.75 25.125H46.125V32.8036H40.75V25.125Z" fill="#E5E4DF"/>
<g filter="url(#filter2_i)">
<path d="M52.902 9H34.0071C33.5112 9 33.205 9 33.0714 9.00003V19.0132C33.0714 19.1943 33.1453 19.3714 33.2477 19.5208L38.4157 27.0429C38.583 27.2871 38.8697 27.4286 39.1656 27.4286H39.7358L43.5484 26.6982L47.1732 27.4286H47.7434C48.0393 27.4286 48.3164 27.2871 48.4838 27.0429L53.6443 19.5185C53.747 19.3691 53.8036 19.1943 53.8036 19.0132V9.00003C53.5031 8.99997 53.3975 9 52.902 9Z" fill="#FF473E"/>
</g>
<g filter="url(#filter3_i)">
<path d="M39.2144 9H46.8929V27.4286H39.2144V9Z" fill="#C6C6C6"/>
</g>
<g filter="url(#filter4_i)">
<path d="M43.4375 52C49.5866 52 54.5714 46.8433 54.5714 40.4822C54.5714 34.121 49.5866 28.9643 43.4375 28.9643C37.2884 28.9643 32.3036 34.121 32.3036 40.4822C32.3036 46.8433 37.2884 52 43.4375 52Z" fill="url(#paint0_radial)"/>
</g>
<g filter="url(#filter5_i)">
<path d="M39.1512 40.788C41.2464 41.3187 42.8957 42.968 43.4264 45.0632C43.4775 45.2647 43.7368 45.2647 43.7879 45.0632C44.3186 42.968 45.9679 41.3187 48.0632 40.788C48.2647 40.737 48.2647 40.4776 48.0632 40.4266C45.9679 39.8958 44.3186 38.2464 43.7879 36.1511C43.7368 35.9496 43.4775 35.9496 43.4264 36.1511C42.8957 38.2464 41.2464 39.8958 39.1512 40.4266C38.9496 40.4776 38.9497 40.737 39.1512 40.788Z" fill="#EDEDED"/>
</g>
</g>
<path d="M23.842 44.706C24.058 44.706 24.258 44.76 24.442 44.868C24.622 44.976 24.768 45.136 24.88 45.348C24.988 45.56 25.042 45.818 25.042 46.122C25.042 46.422 24.992 46.69 24.892 46.926C24.788 47.162 24.64 47.352 24.448 47.496C24.256 47.636 24.032 47.716 23.776 47.736L23.776 46.836C23.948 46.816 24.092 46.748 24.208 46.632C24.32 46.512 24.376 46.354 24.376 46.158C24.376 45.982 24.33 45.848 24.238 45.756C24.142 45.66 24.02 45.612 23.872 45.612C23.74 45.612 23.632 45.65 23.548 45.726C23.46 45.802 23.39 45.898 23.338 46.014C23.286 46.13 23.226 46.29 23.158 46.494C23.07 46.758 22.984 46.974 22.9 47.142C22.812 47.31 22.686 47.454 22.522 47.574C22.358 47.69 22.144 47.748 21.88 47.748C21.516 47.748 21.23 47.618 21.022 47.358C20.81 47.094 20.704 46.746 20.704 46.314C20.704 45.866 20.812 45.51 21.028 45.246C21.244 44.978 21.532 44.826 21.892 44.79L21.892 45.702C21.74 45.726 21.616 45.79 21.52 45.894C21.42 45.998 21.37 46.14 21.37 46.32C21.37 46.476 21.412 46.602 21.496 46.698C21.576 46.794 21.694 46.842 21.85 46.842C21.974 46.842 22.078 46.806 22.162 46.734C22.242 46.658 22.308 46.564 22.36 46.452C22.412 46.336 22.47 46.18 22.534 45.984C22.63 45.712 22.72 45.492 22.804 45.324C22.888 45.152 23.014 45.006 23.182 44.886C23.35 44.766 23.57 44.706 23.842 44.706ZM20.764 40.9868L25 40.9868L25 41.8328L20.764 41.8328L20.764 40.9868ZM24.352 37.1255L24.352 35.7035L25 35.7035L25 37.9715L20.764 37.9715L20.764 37.1255L24.352 37.1255ZM20.764 32.356L24.118 31.222L20.764 30.082L20.764 29.176L25 30.676L25 31.762L20.764 33.262L20.764 32.356ZM21.436 25.6235L22.534 25.6235L22.534 24.1235L23.182 24.1235L23.182 25.6235L24.322 25.6235L24.322 23.9435L25 23.9435L25 26.4695L20.764 26.4695L20.764 23.9435L21.436 23.9435L21.436 25.6235ZM25 18.8592L23.35 19.8492L23.35 20.2212L25 20.2212L25 21.0672L20.764 21.0672L20.764 19.4532C20.764 18.9612 20.884 18.5872 21.124 18.3312C21.364 18.0712 21.68 17.9412 22.072 17.9412C22.392 17.9412 22.66 18.0312 22.876 18.2112C23.092 18.3872 23.236 18.6432 23.308 18.9792L25 17.9232L25 18.8592ZM22.768 20.2212L22.768 19.5252C22.768 19.0412 22.554 18.7992 22.126 18.7992C21.922 18.7992 21.764 18.8592 21.652 18.9792C21.536 19.0952 21.478 19.2772 21.478 19.5252L21.478 20.2212L22.768 20.2212Z" fill="#CBCBCB"/>
<defs>
<filter id="filter0_di" x="0.5" y="0.5" width="75" height="86.1209" filterUnits="userSpaceOnUse" color-interpolation-filters="sRGB">
<feFlood flood-opacity="0" result="BackgroundImageFix"/>
<feColorMatrix in="SourceAlpha" type="matrix" values="0 0 0 0 0 0 0 0 0 0 0 0 0 0 0 0 0 0 127 0"/>
<feOffset dy="4"/>
<feGaussianBlur stdDeviation="6"/>
<feColorMatrix type="matrix" values="0 0 0 0 0.6 0 0 0 0 0.6 0 0 0 0 0.6 0 0 0 0.25 0"/>
<feBlend mode="normal" in2="BackgroundImageFix" result="effect1_dropShadow"/>
<feBlend mode="normal" in="SourceGraphic" in2="effect1_dropShadow" result="shape"/>
<feColorMatrix in="SourceAlpha" type="matrix" values="0 0 0 0 0 0 0 0 0 0 0 0 0 0 0 0 0 0 127 0" result="hardAlpha"/>
<feOffset dy="-2"/>
<feGaussianBlur stdDeviation="2"/>
<feComposite in2="hardAlpha" operator="arithmetic" k2="-1" k3="1"/>
<feColorMatrix type="matrix" values="0 0 0 0 0.704167 0 0 0 0 0.657222 0 0 0 0 0.657222 0 0 0 0.25 0"/>
<feBlend mode="normal" in2="shape" result="effect2_innerShadow"/>
</filter>
<filter id="filter1_d" x="28.3036" y="9" width="30.2679" height="51" filterUnits="userSpaceOnUse" color-interpolation-filters="sRGB">
<feFlood flood-opacity="0" result="BackgroundImageFix"/>
<feColorMatrix in="SourceAlpha" type="matrix" values="0 0 0 0 0 0 0 0 0 0 0 0 0 0 0 0 0 0 127 0"/>
<feOffset dy="4"/>
<feGaussianBlur stdDeviation="2"/>
<feColorMatrix type="matrix" values="0 0 0 0 0.675 0 0 0 0 0.675 0 0 0 0 0.675 0 0 0 0.25 0"/>
<feBlend mode="normal" in2="BackgroundImageFix" result="effect1_dropShadow"/>
<feBlend mode="normal" in="SourceGraphic" in2="effect1_dropShadow" result="shape"/>
</filter>
<filter id="filter2_i" x="33.0714" y="9" width="20.7321" height="22.4286" filterUnits="userSpaceOnUse" color-interpolation-filters="sRGB">
<feFlood flood-opacity="0" result="BackgroundImageFix"/>
<feBlend mode="normal" in="SourceGraphic" in2="BackgroundImageFix" result="shape"/>
<feColorMatrix in="SourceAlpha" type="matrix" values="0 0 0 0 0 0 0 0 0 0 0 0 0 0 0 0 0 0 127 0" result="hardAlpha"/>
<feOffset dy="4"/>
<feGaussianBlur stdDeviation="2"/>
<feComposite in2="hardAlpha" operator="arithmetic" k2="-1" k3="1"/>
<feColorMatrix type="matrix" values="0 0 0 0 0 0 0 0 0 0 0 0 0 0 0 0 0 0 0.25 0"/>
<feBlend mode="normal" in2="shape" result="effect1_innerShadow"/>
</filter>
<filter id="filter3_i" x="39.2144" y="9" width="7.67857" height="22.4286" filterUnits="userSpaceOnUse" color-interpolation-filters="sRGB">
<feFlood flood-opacity="0" result="BackgroundImageFix"/>
<feBlend mode="normal" in="SourceGraphic" in2="BackgroundImageFix" result="shape"/>
<feColorMatrix in="SourceAlpha" type="matrix" values="0 0 0 0 0 0 0 0 0 0 0 0 0 0 0 0 0 0 127 0" result="hardAlpha"/>
<feOffset dy="4"/>
<feGaussianBlur stdDeviation="2"/>
<feComposite in2="hardAlpha" operator="arithmetic" k2="-1" k3="1"/>
<feColorMatrix type="matrix" values="0 0 0 0 0 0 0 0 0 0 0 0 0 0 0 0 0 0 0.25 0"/>
<feBlend mode="normal" in2="shape" result="effect1_innerShadow"/>
</filter>
<filter id="filter4_i" x="32.3036" y="26.9643" width="22.2679" height="25.0357" filterUnits="userSpaceOnUse" color-interpolation-filters="sRGB">
<feFlood flood-opacity="0" result="BackgroundImageFix"/>
<feBlend mode="normal" in="SourceGraphic" in2="BackgroundImageFix" result="shape"/>
<feColorMatrix in="SourceAlpha" type="matrix" values="0 0 0 0 0 0 0 0 0 0 0 0 0 0 0 0 0 0 127 0" result="hardAlpha"/>
<feOffset dy="-2"/>
<feGaussianBlur stdDeviation="2"/>
<feComposite in2="hardAlpha" operator="arithmetic" k2="-1" k3="1"/>
<feColorMatrix type="matrix" values="0 0 0 0 0.275 0 0 0 0 0.275 0 0 0 0 0.275 0 0 0 0.25 0"/>
<feBlend mode="normal" in2="shape" result="effect1_innerShadow"/>
</filter>
<filter id="filter5_i" x="39" y="36" width="9.21429" height="9.21429" filterUnits="userSpaceOnUse" color-interpolation-filters="sRGB">
<feFlood flood-opacity="0" result="BackgroundImageFix"/>
<feBlend mode="normal" in="SourceGraphic" in2="BackgroundImageFix" result="shape"/>
<feColorMatrix in="SourceAlpha" type="matrix" values="0 0 0 0 0 0 0 0 0 0 0 0 0 0 0 0 0 0 127 0" result="hardAlpha"/>
<feOffset/>
<feGaussianBlur stdDeviation="0.5"/>
<feComposite in2="hardAlpha" operator="arithmetic" k2="-1" k3="1"/>
<feColorMatrix type="matrix" values="0 0 0 0 0.7 0 0 0 0 0.7 0 0 0 0 0.7 0 0 0 1 0"/>
<feBlend mode="normal" in2="shape" result="effect1_innerShadow"/>
</filter>
<radialGradient id="paint0_radial" cx="0" cy="0" r="1" gradientUnits="userSpaceOnUse" gradientTransform="translate(43.8882 36.2422) rotate(89.5936) scale(15.7582 15.2329)">
<stop stop-color="#F9F9F9"/>
<stop offset="1" stop-color="#ACACAC"/>
</radialGradient>
</defs>
</svg>
